<svg width="147" height="147" viewBox="0 0 147 147" fill="none" xmlns="http://www.w3.org/2000/svg">
<g clip-path="url(#clip0_42_2)">
<path d="M73.5001 147C83.2238 147.113 92.8732 145.296 101.89 141.654C110.906 138.011 119.11 132.615 126.026 125.78C132.942 118.944 138.433 110.803 142.18 101.83C145.928 92.8569 147.857 83.2293 147.857 73.505C147.857 63.7807 145.928 54.1531 142.18 45.1799C138.433 36.2067 132.942 28.0663 126.026 21.2304C119.11 14.3945 110.906 8.99899 101.89 5.3564C92.8732 1.71381 83.2238 -0.103419 73.5001 0.0100053C54.1565 0.235645 35.6818 8.07819 22.0828 21.8367C8.48394 35.5951 0.857422 54.1601 0.857422 73.505C0.857422 92.8499 8.48394 111.415 22.0828 125.173C35.6818 138.932 54.1565 146.774 73.5001 147Z" fill="white"/>
</g>
<defs>
<clipPath id="clip0_42_2">
<rect width="147" height="147" fill="white"/>
</clipPath>
</defs>
</svg>
